<svg width="300" height="93" viewBox="0 0 79.374998 24.60625" version="1.1" id="svg5" xml:space="preserve" inkscape:version="1.2.2 (b0a8486541, 2022-12-01)" sodipodi:docname="tariffhelp.svg" xmlns:inkscape="http://www.inkscape.org/namespaces/inkscape" xmlns:sodipodi="http://sodipodi.sourceforge.net/DTD/sodipodi-0.dtd" xmlns="http://www.w3.org/2000/svg" xmlns:svg="http://www.w3.org/2000/svg"><sodipodi:namedview id="namedview7" pagecolor="#505050" bordercolor="#eeeeee" borderopacity="1" inkscape:showpageshadow="0" inkscape:pageopacity="0" inkscape:pagecheckerboard="0" inkscape:deskcolor="#505050" inkscape:document-units="mm" showgrid="false" inkscape:zoom="3.3638608" inkscape:cx="150.86831" inkscape:cy="70.752035" inkscape:window-width="1707" inkscape:window-height="1039" inkscape:window-x="0" inkscape:window-y="0" inkscape:window-maximized="1" inkscape:current-layer="layer1"></sodipodi:namedview><defs id="defs2"></defs><g inkscape:label="Layer 1" inkscape:groupmode="layer" id="layer1"><path style="fill:#000000;stroke-width:0.0881783" d="M 18.350869,18.466004 12.198246,24.618156 11.100392,23.491937 10.002538,22.365722 5.0012687,17.339552 0,12.313382 6.1012993,6.1566909 12.202598,0 18.353045,6.1569262 24.50349,12.313853 Z M 17.730164,17.852211 23.268992,12.313905 17.735796,6.7753542 12.202598,1.2368037 6.7227614,6.7750923 1.2429249,12.313382 l 0.043665,0.04409 0.043664,0.04409 5.4305401,5.494478 5.430539,5.494478 z M 9.29271,16.942749 H 8.6313719 V 13.54788 10.15301 H 9.29271 9.9540483 v 1.191898 1.191896 l 2.2705947,-0.02353 2.270594,-0.02353 0.01447,-1.146319 0.01447,-1.14632 h 0.628019 0.628017 l 0.01885,3.372826 0.01885,3.372826 -0.661337,8.8e-5 -0.661339,8.8e-5 0.02581,-1.631401 0.02581,-1.63138 H 12.250448 9.9540436 v 1.631302 1.6313 z m 2.953659,-5.467062 h -0.50325 L 11.686905,10.880482 11.630692,10.285277 11.630059,9.6037592 11.629426,8.9222407 9.8879023,8.8983316 8.1463782,8.8744227 8.1201264,8.3233078 8.0938744,7.7721925 h 4.1045036 4.104505 V 8.3453521 8.918512 h -1.719479 -1.719479 l -5.33e-4,0.5511153 -5.34e-4,0.5511147 -0.05663,0.727472 -0.05663,0.727472 h -0.50325 z m 17.591915,4.144386 H 29.088767 V 12.97472 10.329367 H 28.251072 27.413376 V 9.7121182 9.0948693 h 2.428771 2.42877 l -0.02591,0.6301362 -0.02591,0.6301355 -0.815651,-0.01819 -0.815649,-0.01819 v 2.65066 2.65066 z m 2.863586,0 h -0.703215 v -0.06029 -0.06028 l 0.767136,-2.2544 0.767136,-2.254398 0.322211,-0.925874 0.322215,-0.9258737 0.82853,-0.023926 0.828533,-0.023922 0.473117,1.3906887 0.473121,1.390691 0.618764,1.763569 0.618768,1.763568 0.04326,0.113965 0.04326,0.113965 -0.738342,-0.02579 -0.738344,-0.02578 -0.160531,-0.529071 -0.16053,-0.52907 -0.0351,-0.110224 -0.0351,-0.110223 H 35.013084 33.78941 l -0.192158,0.661337 -0.192162,0.661338 z m 2.289575,-2.491526 0.798882,-0.01834 v -0.04215 -0.04215 L 35.418105,11.898083 35.045886,10.77026 h -0.0495 -0.04949 l -0.320658,0.992007 -0.320659,0.992006 -0.05651,0.196304 -0.05651,0.196305 z m 4.678734,2.491526 H 38.96475 V 12.345276 9.0704817 l 1.476989,0.048069 1.476988,0.048069 0.401744,0.1429428 0.40174,0.1429417 0.32829,0.2706045 0.328288,0.2706035 0.173799,0.3406718 0.173798,0.340671 v 0.579506 0.579504 l -0.136476,0.326633 -0.136478,0.326635 -0.194192,0.211236 -0.194191,0.211237 -0.319152,0.145436 -0.319145,0.145435 0.737996,1.177273 0.737996,1.177268 v 0.03243 0.03243 h -0.788077 -0.788074 l -0.628312,-1.146325 -0.628309,-1.14632 h -0.347184 -0.347183 v 1.14632 1.14632 z m 1.281418,-3.35078 h 0.575991 l 0.306355,-0.128002 0.306354,-0.128004 0.09529,-0.246755 0.09529,-0.246756 -0.04205,-0.384635 -0.04205,-0.384635 -0.188489,-0.188525 -0.188492,-0.188524 -0.747101,-0.0311 -0.747101,-0.03109 v 0.979011 0.979011 z m 4.714713,3.35078 H 44.960885 V 12.353905 9.0877372 l 0.727471,0.025612 0.727471,0.025612 -0.02206,0.066134 -0.02203,0.066134 v 3.1744238 3.174423 z m 2.909888,0 H 47.870773 V 12.35747 9.0948693 h 1.939924 1.939925 v 0.6172489 0.6172488 h -1.234499 -1.234496 v 0.843988 0.843986 l 1.11935,-0.021 1.11935,-0.02099 -0.0082,0.565818 -0.0082,0.565817 -1.114391,0.0247 -1.114394,0.0247 0.0137,0.107564 0.0137,0.107564 -0.01047,1.124275 -0.01043,1.124275 z m 5.004128,1.7e-5 -0.727475,1.7e-5 0.02073,-3.240574 0.02073,-3.2405747 1.941254,-0.023732 1.941254,-0.023733 V 9.7104292 10.329365 H 55.54232 54.307821 v 0.829163 0.829163 l 1.102233,-0.04323 1.10223,-0.04323 v 0.624918 0.62492 h -1.10223 -1.102233 v 1.234498 1.234498 z m 4.960036,-1.7e-5 H 57.834934 V 12.35747 9.0948693 h 0.705428 0.705425 l -1.77e-4,1.3006317 -1.73e-4,1.300632 1.23464,-0.02669 1.234708,-0.02669 V 10.36881 9.0948707 h 0.705425 0.70543 v 3.2626013 3.262602 h -0.70543 -0.705425 v -1.322677 -1.322676 h -1.234498 -1.2345 v 1.322676 1.322677 z m 7.936059,0 H 64.536493 V 12.35747 9.0948693 h 1.939928 1.939925 V 9.7121182 10.329367 H 67.181849 65.94735 v 0.798049 0.798047 l 1.124276,-0.01481 1.124273,-0.01481 0.02626,0.539438 0.02626,0.539439 H 67.097898 65.94737 v 0.749516 0.749517 h 1.234499 1.234497 v 0.57316 0.57316 z m 5.158437,0 H 69.739022 V 12.35747 9.0948693 h 0.749517 0.749517 v 2.6453527 2.645353 h 1.146319 1.146318 v 0.617248 0.61725 z m 3.659405,0 H 74.588834 V 12.346364 9.0726553 l 1.521081,0.040231 1.521077,0.040231 0.466771,0.2038313 0.466773,0.2038317 0.294363,0.3438959 0.294363,0.3438968 0.11066,0.395234 0.110656,0.395235 -0.04779,0.526983 -0.04778,0.526981 -0.233674,0.398737 -0.233675,0.398737 -0.333059,0.21025 -0.333059,0.21025 -0.345454,0.09591 -0.345454,0.09591 -0.727472,5.33e-4 -0.727471,5.33e-4 v 1.058142 1.058141 h -0.705428 z m 1.344722,-3.224775 0.639295,-0.06103 0.246277,-0.124889 0.246279,-0.12489 0.08439,-0.221964 0.08439,-0.221963 -0.0013,-0.324928 -0.0013,-0.324928 -0.111502,-0.220446 -0.111504,-0.220447 -0.217867,-0.103503 -0.217863,-0.103504 -0.639294,-0.0622 -0.639295,-0.0622 v 1.118963 1.118963 l 0.639295,-0.06103 z" id="path228"></path></g></svg>